<svg xmlns="http://www.w3.org/2000/svg" xmlns:xlink="http://www.w3.org/1999/xlink" width="100" 
zoomAndPan="magnify" viewBox="0 0 142.5 142.499995" height="100" preserveAspectRatio="xMidYMid meet" 
version="1.0"><defs><clipPath id="40177160d6"><path d="M 0 0 L 141.75 0 L 141.75 141.75 L 0 141.75 Z M 0 0 " 
clip-rule="nonzero"/></clipPath><clipPath id="42bf5e0c93"><path d="M 0.144531 0 L 73.644531 0 L 73.644531 142 
L 0.144531 142 Z M 0.144531 0 " clip-rule="nonzero"/></clipPath></defs><g clip-path="url(#40177160d6)">
<path fill="#fffeec" d="M 70.875 0 C 31.730469 0 0 31.730469 0 70.875 C 0 110.019531 31.730469 141.75 70.875 
141.75 C 110.019531 141.75 141.75 110.019531 141.75 70.875 C 141.75 31.730469 110.019531 0 70.875 0 " 
fill-opacity="1" fill-rule="nonzero"/></g><g clip-path="url(#42bf5e0c93)"><path fill="#bee5b0" 
d="M 4.25 47.523438 C 1.769531 54.828125 0.144531 63.132812 0.144531 71.285156 C 0.144531 79.4375 1.539062
 87.28125 4.019531 94.507812 C 4.09375 94.664062 4.09375 94.816406 4.171875 94.96875 C 14.089844 122.113281 
 40.28125 142.109375 68.632812 142.492188 L 73.644531 142.492188 L 73.644531 0.00390625 L 68.632812 0.00390625 
 C 40.125 0.386719 13.933594 20.074219 4.25 47.523438 " fill-opacity="1" fill-rule="nonzero"/></g></svg>