<svg xmlns="http://www.w3.org/2000/svg" xmlns:xlink="http://www.w3.org/1999/xlink" width="512" zoomAndPan="magnify" viewBox="0 0 384 383.999986" height="512" preserveAspectRatio="xMidYMid meet" version="1.0"><defs><g/><clipPath id="id1"><path d="M 0.75 0.75 L 326.78125 0.75 L 326.78125 326.78125 L 0.75 326.78125 Z M 0.75 0.75 " clip-rule="nonzero"/></clipPath><clipPath id="id2"><path d="M 0.75 163.988281 L 163.765625 163.988281 L 163.765625 327.003906 L 0.75 327.003906 Z M 0.75 163.988281 " clip-rule="nonzero"/></clipPath><clipPath id="id3"><path d="M 27.699219 27.699219 L 300.363281 27.699219 L 300.363281 163.546875 L 27.699219 163.546875 Z M 27.699219 27.699219 " clip-rule="nonzero"/></clipPath><clipPath id="id4"><path d="M 164.425781 27.703125 L 300.273438 27.703125 L 300.273438 300.363281 L 164.425781 300.363281 Z M 164.425781 27.703125 " clip-rule="nonzero"/></clipPath></defs><g clip-path="url(#id1)"><path fill="#000000" d="M 163.765625 0.75 C 73.734375 0.75 0.75 73.734375 0.75 163.765625 C 0.75 253.796875 73.734375 326.78125 163.765625 326.78125 C 253.796875 326.78125 326.78125 253.796875 326.78125 163.765625 C 326.78125 73.734375 253.796875 0.75 163.765625 0.75 " fill-opacity="1" fill-rule="nonzero"/></g><g clip-path="url(#id2)"><path fill="#000000" d="M 0.75 163.988281 L 163.765625 163.988281 L 163.765625 327.003906 L 0.75 327.003906 L 0.75 163.988281 " fill-opacity="1" fill-rule="nonzero"/></g><g clip-path="url(#id3)"><path fill="#ffffff" d="M 300.363281 163.546875 L 285.703125 163.546875 C 285.703125 96.695312 231.121094 42.304688 164.03125 42.304688 C 96.941406 42.304688 42.355469 96.695312 42.355469 163.546875 L 27.699219 163.546875 C 27.699219 88.640625 88.859375 27.699219 164.03125 27.699219 C 239.203125 27.699219 300.363281 88.640625 300.363281 163.546875 Z M 300.363281 163.546875 " fill-opacity="1" fill-rule="nonzero"/></g><g clip-path="url(#id4)"><path fill="#ffffff" d="M 164.429688 300.363281 L 164.429688 285.703125 C 231.28125 285.703125 285.667969 231.121094 285.667969 164.03125 C 285.667969 96.941406 231.28125 42.355469 164.429688 42.355469 L 164.429688 27.699219 C 239.332031 27.699219 300.273438 88.859375 300.273438 164.03125 C 300.273438 239.203125 239.332031 300.363281 164.429688 300.363281 Z M 164.429688 300.363281 " fill-opacity="1" fill-rule="nonzero"/></g><path stroke-linecap="butt" transform="matrix(8.704317, 0, 0, 9.346299, 27.700993, 164.125725)" fill="none" stroke-linejoin="miter" d="M -0.000203855 -0.0000775287 L 10.590357 -0.0000775287 " stroke="#ffffff" stroke-width="1" stroke-opacity="1" stroke-miterlimit="4"/><path stroke-linecap="butt" transform="matrix(8.704317, 0, 0, 9.346299, 205.972812, 164.125725)" fill="none" stroke-linejoin="miter" d="M -0.0000179502 -0.0000775287 L 10.590542 -0.0000775287 " stroke="#ffffff" stroke-width="1" stroke-opacity="1" stroke-miterlimit="4"/><path stroke-linecap="butt" transform="matrix(0.000000000000000948, 15.475156, -15.525244, 0.000000000000000951, 35.463421, 163.98712)" fill="none" stroke-linejoin="miter" d="M 0.0000750514 -0.000091639 L 8.778258 -0.000091639 " stroke="#ffffff" stroke-width="1" stroke-opacity="1" stroke-miterlimit="4"/><g fill="#000000" fill-opacity="1"><g transform="translate(78.661599, 377.602007)"><g><path d="M 18.816406 -35.105469 L 19.042969 -38.539062 L 16.402344 -38.714844 C 13.761719 -38.886719 11.867188 -38.324219 10.671875 -37.128906 C 9.480469 -35.933594 8.828125 -34.121094 8.675781 -31.792969 L 8.082031 -22.8125 L 3.382812 -23.125 L 3.15625 -19.691406 L 7.855469 -19.378906 L 6.550781 0.433594 L 10.25 0.675781 L 11.554688 -19.136719 L 17.738281 -18.726562 L 17.964844 -22.160156 L 11.78125 -22.570312 L 12.445312 -32.605469 C 12.496094 -33.398438 12.699219 -34.074219 13.160156 -34.628906 C 13.566406 -35.132812 14.378906 -35.398438 15.648438 -35.316406 Z M 18.816406 -35.105469 "/></g></g></g><g fill="#000000" fill-opacity="1"><g transform="translate(108.935346, 379.287936)"><g><path d="M 22.710938 -12.363281 C 22.773438 -10.035156 21.976562 -8.054688 20.378906 -6.367188 C 18.730469 -4.628906 16.792969 -3.785156 14.464844 -3.722656 C 12.136719 -3.660156 10.105469 -4.398438 8.417969 -6.050781 C 6.683594 -7.644531 5.835938 -9.582031 5.773438 -11.910156 C 5.710938 -14.242188 6.453125 -16.21875 8.101562 -17.957031 C 9.699219 -19.644531 11.6875 -20.542969 14.015625 -20.605469 C 16.34375 -20.667969 18.324219 -19.871094 20.0625 -18.277344 C 21.75 -16.628906 22.648438 -14.691406 22.710938 -12.363281 Z M 26.414062 -12.460938 C 26.328125 -15.796875 25.03125 -18.621094 22.585938 -20.9375 C 20.144531 -23.257812 17.253906 -24.398438 13.917969 -24.308594 C 10.53125 -24.21875 7.703125 -22.925781 5.386719 -20.480469 C 3.070312 -18.035156 1.980469 -15.148438 2.070312 -11.8125 C 2.160156 -8.425781 3.398438 -5.597656 5.84375 -3.332031 C 8.289062 -1.015625 11.230469 0.0703125 14.566406 -0.015625 C 17.847656 -0.105469 20.726562 -1.347656 23.042969 -3.792969 C 25.363281 -6.183594 26.503906 -9.074219 26.414062 -12.460938 Z M 26.414062 -12.460938 "/></g></g></g><g fill="#000000" fill-opacity="1"><g transform="translate(150.549211, 377.50642)"><g><path d="M 21.253906 -14.726562 C 21.566406 -12.417969 20.988281 -10.363281 19.582031 -8.515625 C 18.128906 -6.613281 16.292969 -5.5625 13.984375 -5.25 C 11.675781 -4.941406 9.574219 -5.457031 7.722656 -6.917969 C 5.824219 -8.316406 4.773438 -10.152344 4.464844 -12.460938 C 4.152344 -14.769531 4.675781 -16.816406 6.128906 -18.722656 C 7.539062 -20.570312 9.417969 -21.679688 11.726562 -21.988281 C 14.035156 -22.300781 16.089844 -21.722656 17.988281 -20.324219 C 19.839844 -18.863281 20.941406 -17.035156 21.253906 -14.726562 Z M 24.925781 -15.222656 C 24.480469 -18.527344 22.890625 -21.199219 20.210938 -23.242188 C 17.53125 -25.285156 14.535156 -26.109375 11.230469 -25.664062 C 7.875 -25.210938 5.203125 -23.621094 3.160156 -20.941406 C 1.117188 -18.261719 0.34375 -15.273438 0.789062 -11.964844 C 1.242188 -8.609375 2.78125 -5.929688 5.453125 -3.941406 C 8.132812 -1.898438 11.171875 -1.132812 14.480469 -1.578125 C 17.730469 -2.015625 20.460938 -3.5625 22.503906 -6.238281 C 24.554688 -8.867188 25.378906 -11.863281 24.925781 -15.222656 Z M 24.925781 -15.222656 "/></g></g></g><g fill="#000000" fill-opacity="1"><g transform="translate(191.76228, 371.287822)"><g><path d="M 19.039062 -16.71875 C 19.585938 -14.507812 19.300781 -12.363281 18.152344 -10.390625 C 17.019531 -8.363281 15.320312 -7.070312 13.113281 -6.523438 C 10.851562 -5.960938 8.746094 -6.3125 6.796875 -7.574219 C 4.859375 -8.785156 3.65625 -10.5625 3.109375 -12.769531 C 2.574219 -14.929688 2.808594 -17.058594 3.945312 -19.085938 C 5.078125 -21.113281 6.773438 -22.40625 9.035156 -22.964844 C 11.246094 -23.515625 13.351562 -23.164062 15.300781 -21.902344 C 17.25 -20.636719 18.503906 -18.875 19.039062 -16.71875 Z M 25.4375 -6.304688 L 15.886719 -44.847656 L 12.289062 -43.957031 L 17.207031 -24.117188 C 16.925781 -24.375 16.601562 -24.570312 16.335938 -24.773438 C 13.589844 -26.605469 10.664062 -27.1875 7.578125 -26.425781 C 4.445312 -25.648438 2.128906 -23.765625 0.558594 -20.867188 C -0.914062 -17.992188 -1.265625 -15.015625 -0.488281 -11.878906 C 0.300781 -8.691406 2.003906 -6.222656 4.632812 -4.421875 C 7.390625 -2.539062 10.304688 -2.007812 13.4375 -2.785156 C 16.519531 -3.546875 18.847656 -5.378906 20.410156 -8.328125 C 20.5625 -8.585938 20.757812 -8.90625 20.886719 -9.265625 L 21.839844 -5.410156 Z M 25.4375 -6.304688 "/></g></g></g><g fill="#000000" fill-opacity="1"><g transform="translate(232.597231, 360.233693)"><g><path d="M -2.804688 -32.160156 C -3.390625 -32.40625 -4.027344 -32.46875 -4.628906 -32.265625 C -5.230469 -32.058594 -5.695312 -31.621094 -5.960938 -31.082031 C -6.257812 -30.480469 -6.269531 -29.859375 -6.066406 -29.257812 C -5.859375 -28.65625 -5.472656 -28.171875 -4.882812 -27.925781 C -4.328125 -27.613281 -3.710938 -27.601562 -3.109375 -27.804688 C -2.507812 -28.011719 -2.023438 -28.398438 -1.726562 -29.003906 C -1.464844 -29.542969 -1.402344 -30.179688 -1.605469 -30.78125 C -1.8125 -31.378906 -2.25 -31.847656 -2.804688 -32.160156 Z M 7.515625 -2.5625 L -0.00390625 -24.613281 L -3.511719 -23.414062 L 4.007812 -1.367188 Z M 7.515625 -2.5625 "/></g></g></g><g fill="#000000" fill-opacity="1"><g transform="translate(255.48759, 352.257869)"><g><path d="M 19.605469 -21.882812 C 18.332031 -24.792969 16.0625 -26.804688 12.875 -28.007812 C 9.78125 -29.136719 6.691406 -29.058594 3.734375 -27.761719 C 0.632812 -26.402344 -1.5 -24.140625 -2.726562 -21.003906 C -3.953125 -17.863281 -3.871094 -14.777344 -2.535156 -11.722656 C -1.175781 -8.617188 1.039062 -6.46875 4.15625 -5.289062 C 5.621094 -4.714844 7.125 -4.449219 8.738281 -4.464844 C 10.351562 -4.476562 12.078125 -4.886719 13.96875 -5.714844 C 15.863281 -6.542969 17.449219 -7.933594 18.78125 -9.902344 C 20.117188 -11.875 20.75 -14.117188 20.78125 -16.558594 L 16.902344 -14.859375 C 16.570312 -13.5 15.988281 -12.320312 15.128906 -11.25 C 14.269531 -10.179688 13.210938 -9.429688 12 -8.898438 C 10.15625 -8.089844 8.25 -7.949219 6.265625 -8.523438 C 4.300781 -9.050781 2.722656 -10.152344 1.621094 -11.867188 L 20.390625 -20.085938 Z M 15.527344 -21.425781 L 0.398438 -14.796875 C 0.207031 -15.753906 0.1875 -16.730469 0.332031 -17.71875 C 0.777344 -20.917969 2.410156 -23.136719 5.222656 -24.367188 C 7.015625 -25.152344 8.871094 -25.273438 10.789062 -24.722656 C 12.773438 -24.148438 14.304688 -23.027344 15.527344 -21.425781 Z M 15.527344 -21.425781 "/></g></g></g><g fill="#000000" fill-opacity="1"><g transform="translate(292.699097, 335.035582)"><g/></g></g><g fill="#000000" fill-opacity="1"><g transform="translate(303.733786, 314.116744)"><g><path d="M 9.582031 -27.773438 C 7.277344 -29.960938 4.40625 -30.933594 1.003906 -30.808594 C -2.289062 -30.648438 -5.101562 -29.378906 -7.324219 -27.039062 C -9.660156 -24.582031 -10.746094 -21.667969 -10.660156 -18.300781 C -10.570312 -14.933594 -9.300781 -12.117188 -6.882812 -9.820312 C -4.425781 -7.488281 -1.550781 -6.363281 1.78125 -6.488281 C 3.351562 -6.527344 4.839844 -6.867188 6.324219 -7.503906 C 7.804688 -8.140625 9.238281 -9.1875 10.660156 -10.6875 C 12.082031 -12.183594 13.007812 -14.078125 13.472656 -16.414062 C 13.933594 -18.746094 13.652344 -21.0625 12.730469 -23.324219 L 9.8125 -20.25 C 10.035156 -18.871094 9.957031 -17.558594 9.582031 -16.238281 C 9.203125 -14.917969 8.519531 -13.8125 7.609375 -12.855469 C 6.222656 -11.394531 4.523438 -10.527344 2.46875 -10.289062 C 0.453125 -10.011719 -1.429688 -10.410156 -3.105469 -11.566406 L 11.003906 -26.425781 Z M 6 -25.769531 L -5.375 -13.792969 C -5.917969 -14.601562 -6.316406 -15.492188 -6.566406 -16.457031 C -7.394531 -19.582031 -6.753906 -22.257812 -4.636719 -24.484375 C -3.289062 -25.90625 -1.625 -26.734375 0.351562 -26.972656 C 2.40625 -27.214844 4.253906 -26.773438 6 -25.769531 Z M 6 -25.769531 "/></g></g></g><g fill="#000000" fill-opacity="1"><g transform="translate(332.567877, 281.411038)"><g><path d="M 1.347656 -25.300781 C 3.308594 -24.148438 4.640625 -22.445312 5.253906 -20.246094 C 5.910156 -18.019531 5.648438 -15.898438 4.496094 -13.9375 C 3.316406 -11.925781 1.59375 -10.667969 -0.667969 -10.15625 C -2.890625 -9.617188 -5 -9.996094 -6.960938 -11.148438 C -8.878906 -12.273438 -10.242188 -13.929688 -10.898438 -16.160156 C -11.554688 -18.386719 -11.292969 -20.503906 -10.113281 -22.511719 C -8.960938 -24.476562 -7.238281 -25.738281 -4.972656 -26.25 C -2.707031 -26.761719 -0.570312 -26.425781 1.347656 -25.300781 Z M 13.265625 -22.601562 L -6.824219 -34.394531 L -8.699219 -31.199219 L -5.230469 -29.160156 C -5.609375 -29.140625 -5.972656 -29.046875 -6.308594 -28.996094 C -9.535156 -28.3125 -11.996094 -26.625 -13.605469 -23.886719 C -15.238281 -21.101562 -15.511719 -18.128906 -14.535156 -14.980469 C -13.507812 -11.917969 -11.625 -9.585938 -8.839844 -7.953125 C -6.007812 -6.289062 -3.050781 -5.78125 0.0742188 -6.402344 C 3.347656 -7.058594 5.761719 -8.773438 7.398438 -11.558594 C 9.007812 -14.296875 9.324219 -17.242188 8.304688 -20.421875 C 8.226562 -20.710938 8.132812 -21.070312 7.964844 -21.414062 L 11.390625 -19.40625 Z M 13.265625 -22.601562 "/></g></g></g><g fill="#000000" fill-opacity="1"><g transform="translate(353.222061, 242.255258)"><g><path d="M -18.40625 -7.519531 L -16.492188 -13.023438 L 2.261719 -6.5 L 3.476562 -10 L -15.277344 -16.523438 L -13.378906 -21.972656 L -16.628906 -23.101562 L -18.527344 -17.652344 L -27.078125 -20.625 L -28.292969 -17.125 L -19.742188 -14.152344 L -21.65625 -8.652344 Z M -18.40625 -7.519531 "/></g></g></g><g fill="#000000" fill-opacity="1"><g transform="translate(362.481315, 212.572324)"><g><path d="M -2.046875 -7.742188 C -2.820312 -6.960938 -3.976562 -6.453125 -5.554688 -6.339844 L -6.191406 -2.472656 C -1.308594 -2.46875 1.542969 -5.113281 2.421875 -10.441406 C 2.628906 -11.691406 2.714844 -12.859375 2.582031 -14.007812 C 2.453125 -15.15625 2.1875 -16.167969 1.761719 -17.148438 C 0.855469 -19.125 -0.828125 -20.3125 -3.28125 -20.71875 C -5.789062 -21.132812 -7.757812 -20.277344 -9.304688 -18.066406 C -9.9375 -17.152344 -10.484375 -16.113281 -10.945312 -14.957031 C -11.394531 -13.851562 -11.890625 -12.804688 -12.367188 -11.863281 C -12.851562 -10.871094 -13.410156 -10.105469 -13.992188 -9.503906 C -14.574219 -8.902344 -15.367188 -8.65625 -16.410156 -8.832031 C -17.457031 -9.003906 -18.167969 -9.550781 -18.5 -10.464844 C -18.886719 -11.386719 -18.984375 -12.421875 -18.800781 -13.519531 C -18.613281 -14.667969 -18.1875 -15.617188 -17.640625 -16.332031 C -17.089844 -17.046875 -16.152344 -17.535156 -14.839844 -17.691406 L -14.191406 -21.609375 C -16.566406 -21.519531 -18.351562 -20.796875 -19.480469 -19.480469 C -20.671875 -18.121094 -21.441406 -16.371094 -21.8125 -14.125 C -22.175781 -11.929688 -21.871094 -9.894531 -20.988281 -8.085938 C -20.046875 -6.320312 -18.460938 -5.199219 -16.160156 -4.816406 C -15.0625 -4.636719 -14.019531 -4.785156 -13.089844 -5.222656 C -12.097656 -5.703125 -11.273438 -6.476562 -10.558594 -7.542969 C -9.917969 -8.507812 -9.371094 -9.542969 -8.867188 -10.640625 C -8.414062 -11.746094 -7.921875 -12.792969 -7.433594 -13.785156 C -6.261719 -16.007812 -4.914062 -17.019531 -3.453125 -16.777344 C -0.945312 -16.363281 -0.0195312 -14.492188 -0.570312 -11.148438 C -0.804688 -9.738281 -1.265625 -8.582031 -2.046875 -7.742188 Z M -2.046875 -7.742188 "/></g></g></g></svg>