<svg xmlns="http://www.w3.org/2000/svg" xmlns:xlink="http://www.w3.org/1999/xlink" width="192" zoomAndPan="magnify" viewBox="0 0 144 143.999998" height="192" preserveAspectRatio="xMidYMid meet" version="1.0"><defs><g/><clipPath id="id1"><path d="M 0.28125 0.28125 L 122.542969 0.28125 L 122.542969 122.542969 L 0.28125 122.542969 Z M 0.28125 0.28125 " clip-rule="nonzero"/></clipPath><clipPath id="id2"><path d="M 0.28125 61.496094 L 61.410156 61.496094 L 61.410156 122.625 L 0.28125 122.625 Z M 0.28125 61.496094 " clip-rule="nonzero"/></clipPath><clipPath id="id3"><path d="M 10.386719 10.386719 L 112.636719 10.386719 L 112.636719 61.328125 L 10.386719 61.328125 Z M 10.386719 10.386719 " clip-rule="nonzero"/></clipPath><clipPath id="id4"><path d="M 61.660156 10.386719 L 112.601562 10.386719 L 112.601562 112.636719 L 61.660156 112.636719 Z M 61.660156 10.386719 " clip-rule="nonzero"/></clipPath></defs><g clip-path="url(#id1)"><path fill="#000000" d="M 61.410156 0.28125 C 27.648438 0.28125 0.28125 27.648438 0.28125 61.410156 C 0.28125 95.171875 27.648438 122.542969 61.410156 122.542969 C 95.171875 122.542969 122.542969 95.171875 122.542969 61.410156 C 122.542969 27.648438 95.171875 0.28125 61.410156 0.28125 " fill-opacity="1" fill-rule="nonzero"/></g><g clip-path="url(#id2)"><path fill="#000000" d="M 0.28125 61.496094 L 61.410156 61.496094 L 61.410156 122.625 L 0.28125 122.625 L 0.28125 61.496094 " fill-opacity="1" fill-rule="nonzero"/></g><g clip-path="url(#id3)"><path fill="#ffffff" d="M 112.636719 61.328125 L 107.140625 61.328125 C 107.140625 36.261719 86.671875 15.863281 61.511719 15.863281 C 36.351562 15.863281 15.882812 36.261719 15.882812 61.328125 L 10.386719 61.328125 C 10.386719 33.238281 33.320312 10.386719 61.511719 10.386719 C 89.703125 10.386719 112.636719 33.238281 112.636719 61.328125 Z M 112.636719 61.328125 " fill-opacity="1" fill-rule="nonzero"/></g><g clip-path="url(#id4)"><path fill="#ffffff" d="M 61.660156 112.636719 L 61.660156 107.140625 C 86.730469 107.140625 107.125 86.671875 107.125 61.511719 C 107.125 36.351562 86.730469 15.882812 61.660156 15.882812 L 61.660156 10.386719 C 89.75 10.386719 112.601562 33.320312 112.601562 61.511719 C 112.601562 89.703125 89.75 112.636719 61.660156 112.636719 Z M 61.660156 112.636719 " fill-opacity="1" fill-rule="nonzero"/></g><path stroke-linecap="butt" transform="matrix(3.264119, 0, 0, 3.504863, 10.387871, 61.547151)" fill="none" stroke-linejoin="miter" d="M -0.000353139 -0.0000787954 L 10.590655 -0.0000787954 " stroke="#ffffff" stroke-width="1" stroke-opacity="1" stroke-miterlimit="4"/><path stroke-linecap="butt" transform="matrix(3.264119, 0, 0, 3.504863, 77.239809, 61.547151)" fill="none" stroke-linejoin="miter" d="M -0.000467949 -0.0000787954 L 10.59054 -0.0000787954 " stroke="#ffffff" stroke-width="1" stroke-opacity="1" stroke-miterlimit="4"/><path stroke-linecap="butt" transform="matrix(0.000000000000000355, 5.803184, -5.821966, 0.000000000000000356, 13.298782, 61.495179)" fill="none" stroke-linejoin="miter" d="M 0.0001576 0.000327605 L 8.77834 0.000327605 " stroke="#ffffff" stroke-width="1" stroke-opacity="1" stroke-miterlimit="4"/><g fill="#000000" fill-opacity="1"><g transform="translate(29.498095, 141.600749)"><g><path d="M 7.054688 -13.164062 L 7.140625 -14.453125 L 6.152344 -14.519531 C 5.160156 -14.582031 4.449219 -14.371094 4.003906 -13.921875 C 3.554688 -13.476562 3.3125 -12.792969 3.253906 -11.921875 L 3.03125 -8.554688 L 1.269531 -8.671875 L 1.183594 -7.382812 L 2.945312 -7.265625 L 2.457031 0.160156 L 3.84375 0.253906 L 4.332031 -7.175781 L 6.652344 -7.023438 L 6.734375 -8.3125 L 4.417969 -8.464844 L 4.667969 -12.226562 C 4.6875 -12.523438 4.761719 -12.777344 4.933594 -12.984375 C 5.085938 -13.175781 5.390625 -13.273438 5.867188 -13.242188 Z M 7.054688 -13.164062 "/></g></g></g><g fill="#000000" fill-opacity="1"><g transform="translate(40.850753, 142.232983)"><g><path d="M 8.515625 -4.636719 C 8.539062 -3.761719 8.242188 -3.019531 7.644531 -2.386719 C 7.023438 -1.734375 6.296875 -1.417969 5.425781 -1.394531 C 4.550781 -1.371094 3.789062 -1.648438 3.15625 -2.269531 C 2.503906 -2.867188 2.1875 -3.59375 2.164062 -4.46875 C 2.140625 -5.339844 2.421875 -6.082031 3.039062 -6.734375 C 3.636719 -7.367188 4.382812 -7.703125 5.257812 -7.726562 C 6.128906 -7.75 6.871094 -7.453125 7.523438 -6.855469 C 8.15625 -6.234375 8.492188 -5.507812 8.515625 -4.636719 Z M 9.90625 -4.671875 C 9.871094 -5.921875 9.386719 -6.984375 8.46875 -7.851562 C 7.554688 -8.722656 6.46875 -9.148438 5.21875 -9.117188 C 3.949219 -9.082031 2.890625 -8.597656 2.019531 -7.679688 C 1.152344 -6.761719 0.742188 -5.679688 0.777344 -4.429688 C 0.808594 -3.160156 1.273438 -2.097656 2.191406 -1.25 C 3.109375 -0.378906 4.210938 0.0273438 5.460938 -0.0078125 C 6.691406 -0.0390625 7.773438 -0.503906 8.640625 -1.421875 C 9.511719 -2.320312 9.941406 -3.402344 9.90625 -4.671875 Z M 9.90625 -4.671875 "/></g></g></g><g fill="#000000" fill-opacity="1"><g transform="translate(56.455953, 141.564913)"><g><path d="M 7.96875 -5.523438 C 8.085938 -4.65625 7.871094 -3.886719 7.34375 -3.195312 C 6.796875 -2.480469 6.109375 -2.085938 5.242188 -1.96875 C 4.378906 -1.851562 3.589844 -2.046875 2.894531 -2.59375 C 2.183594 -3.121094 1.789062 -3.808594 1.671875 -4.671875 C 1.558594 -5.539062 1.753906 -6.308594 2.296875 -7.019531 C 2.828125 -7.714844 3.53125 -8.128906 4.398438 -8.246094 C 5.261719 -8.363281 6.035156 -8.144531 6.746094 -7.621094 C 7.441406 -7.074219 7.851562 -6.386719 7.96875 -5.523438 Z M 9.347656 -5.707031 C 9.179688 -6.949219 8.585938 -7.949219 7.578125 -8.714844 C 6.574219 -9.480469 5.453125 -9.789062 4.210938 -9.625 C 2.953125 -9.453125 1.949219 -8.859375 1.183594 -7.851562 C 0.417969 -6.847656 0.128906 -5.726562 0.296875 -4.488281 C 0.464844 -3.226562 1.042969 -2.222656 2.042969 -1.476562 C 3.050781 -0.710938 4.191406 -0.425781 5.429688 -0.59375 C 6.648438 -0.757812 7.671875 -1.335938 8.4375 -2.339844 C 9.207031 -3.324219 9.515625 -4.449219 9.347656 -5.707031 Z M 9.347656 -5.707031 "/></g></g></g><g fill="#000000" fill-opacity="1"><g transform="translate(71.910855, 139.232941)"><g><path d="M 7.140625 -6.269531 C 7.34375 -5.441406 7.238281 -4.636719 6.808594 -3.894531 C 6.382812 -3.136719 5.746094 -2.652344 4.917969 -2.445312 C 4.070312 -2.234375 3.28125 -2.367188 2.546875 -2.839844 C 1.824219 -3.292969 1.371094 -3.960938 1.164062 -4.789062 C 0.964844 -5.597656 1.054688 -6.398438 1.480469 -7.15625 C 1.902344 -7.917969 2.539062 -8.402344 3.390625 -8.613281 C 4.21875 -8.816406 5.007812 -8.6875 5.738281 -8.210938 C 6.46875 -7.738281 6.9375 -7.078125 7.140625 -6.269531 Z M 9.539062 -2.363281 L 5.957031 -16.816406 L 4.609375 -16.484375 L 6.453125 -9.042969 C 6.347656 -9.140625 6.226562 -9.214844 6.125 -9.289062 C 5.097656 -9.976562 4 -10.195312 2.84375 -9.910156 C 1.667969 -9.617188 0.796875 -8.910156 0.207031 -7.824219 C -0.34375 -6.746094 -0.476562 -5.628906 -0.183594 -4.453125 C 0.113281 -3.261719 0.75 -2.332031 1.738281 -1.65625 C 2.769531 -0.953125 3.863281 -0.753906 5.039062 -1.042969 C 6.195312 -1.332031 7.070312 -2.015625 7.652344 -3.125 C 7.710938 -3.21875 7.785156 -3.339844 7.832031 -3.476562 L 8.191406 -2.03125 Z M 9.539062 -2.363281 "/></g></g></g><g fill="#000000" fill-opacity="1"><g transform="translate(87.223968, 135.087648)"><g><path d="M -1.050781 -12.058594 C -1.273438 -12.152344 -1.511719 -12.175781 -1.734375 -12.097656 C -1.960938 -12.023438 -2.136719 -11.859375 -2.234375 -11.65625 C -2.347656 -11.429688 -2.351562 -11.195312 -2.273438 -10.972656 C -2.199219 -10.746094 -2.050781 -10.566406 -1.832031 -10.472656 C -1.625 -10.355469 -1.390625 -10.351562 -1.164062 -10.425781 C -0.941406 -10.503906 -0.757812 -10.648438 -0.648438 -10.875 C -0.546875 -11.078125 -0.523438 -11.316406 -0.601562 -11.542969 C -0.679688 -11.769531 -0.84375 -11.941406 -1.050781 -12.058594 Z M 2.820312 -0.960938 L -0.00390625 -9.230469 L -1.316406 -8.78125 L 1.503906 -0.511719 Z M 2.820312 -0.960938 "/></g></g></g><g fill="#000000" fill-opacity="1"><g transform="translate(95.807843, 132.096707)"><g><path d="M 7.351562 -8.207031 C 6.875 -9.296875 6.023438 -10.050781 4.828125 -10.503906 C 3.667969 -10.925781 2.511719 -10.898438 1.402344 -10.410156 C 0.238281 -9.902344 -0.5625 -9.050781 -1.023438 -7.875 C -1.480469 -6.699219 -1.453125 -5.542969 -0.949219 -4.394531 C -0.441406 -3.230469 0.390625 -2.425781 1.558594 -1.984375 C 2.109375 -1.769531 2.671875 -1.667969 3.277344 -1.671875 C 3.882812 -1.679688 4.53125 -1.832031 5.238281 -2.144531 C 5.949219 -2.453125 6.542969 -2.972656 7.042969 -3.714844 C 7.542969 -4.453125 7.78125 -5.292969 7.792969 -6.210938 L 6.335938 -5.570312 C 6.214844 -5.0625 5.996094 -4.621094 5.671875 -4.21875 C 5.351562 -3.816406 4.953125 -3.535156 4.5 -3.335938 C 3.808594 -3.035156 3.09375 -2.980469 2.351562 -3.195312 C 1.613281 -3.394531 1.019531 -3.808594 0.609375 -4.449219 L 7.648438 -7.53125 Z M 5.824219 -8.035156 L 0.148438 -5.550781 C 0.078125 -5.910156 0.0703125 -6.273438 0.125 -6.644531 C 0.292969 -7.84375 0.902344 -8.675781 1.957031 -9.136719 C 2.632812 -9.433594 3.328125 -9.476562 4.046875 -9.273438 C 4.789062 -9.054688 5.363281 -8.636719 5.824219 -8.035156 Z M 5.824219 -8.035156 "/></g></g></g><g fill="#000000" fill-opacity="1"><g transform="translate(109.762157, 125.638344)"><g/></g></g><g fill="#000000" fill-opacity="1"><g transform="translate(113.90017, 117.793791)"><g><path d="M 3.59375 -10.414062 C 2.730469 -11.234375 1.652344 -11.601562 0.375 -11.554688 C -0.859375 -11.492188 -1.914062 -11.015625 -2.746094 -10.140625 C -3.621094 -9.21875 -4.03125 -8.125 -3.996094 -6.863281 C -3.964844 -5.597656 -3.488281 -4.542969 -2.582031 -3.683594 C -1.660156 -2.808594 -0.582031 -2.386719 0.667969 -2.433594 C 1.257812 -2.449219 1.816406 -2.574219 2.371094 -2.8125 C 2.925781 -3.054688 3.464844 -3.445312 3.996094 -4.007812 C 4.53125 -4.570312 4.878906 -5.28125 5.050781 -6.15625 C 5.226562 -7.03125 5.117188 -7.898438 4.773438 -8.746094 L 3.679688 -7.59375 C 3.765625 -7.078125 3.734375 -6.585938 3.59375 -6.089844 C 3.449219 -5.59375 3.195312 -5.179688 2.851562 -4.820312 C 2.332031 -4.273438 1.695312 -3.949219 0.925781 -3.859375 C 0.171875 -3.753906 -0.535156 -3.90625 -1.164062 -4.335938 L 4.125 -9.910156 Z M 2.25 -9.664062 L -2.015625 -5.171875 C -2.21875 -5.476562 -2.367188 -5.808594 -2.460938 -6.171875 C -2.773438 -7.34375 -2.53125 -8.347656 -1.738281 -9.183594 C -1.234375 -9.714844 -0.609375 -10.027344 0.132812 -10.113281 C 0.902344 -10.207031 1.59375 -10.039062 2.25 -9.664062 Z M 2.25 -9.664062 "/></g></g></g><g fill="#000000" fill-opacity="1"><g transform="translate(124.71295, 105.529146)"><g><path d="M 0.503906 -9.488281 C 1.242188 -9.054688 1.742188 -8.417969 1.96875 -7.59375 C 2.214844 -6.757812 2.117188 -5.960938 1.6875 -5.226562 C 1.246094 -4.472656 0.597656 -4 -0.25 -3.808594 C -1.082031 -3.605469 -1.875 -3.75 -2.609375 -4.179688 C -3.332031 -4.601562 -3.839844 -5.222656 -4.085938 -6.058594 C -4.332031 -6.894531 -4.234375 -7.6875 -3.792969 -8.441406 C -3.359375 -9.179688 -2.714844 -9.652344 -1.867188 -9.84375 C -1.015625 -10.035156 -0.214844 -9.910156 0.503906 -9.488281 Z M 4.976562 -8.476562 L -2.558594 -12.898438 L -3.261719 -11.699219 L -1.960938 -10.9375 C -2.105469 -10.925781 -2.238281 -10.890625 -2.367188 -10.875 C -3.574219 -10.617188 -4.5 -9.984375 -5.101562 -8.957031 C -5.714844 -7.914062 -5.816406 -6.796875 -5.453125 -5.617188 C -5.066406 -4.46875 -4.359375 -3.59375 -3.316406 -2.980469 C -2.253906 -2.359375 -1.144531 -2.167969 0.0273438 -2.402344 C 1.253906 -2.648438 2.160156 -3.289062 2.773438 -4.335938 C 3.378906 -5.363281 3.496094 -6.464844 3.113281 -7.65625 C 3.085938 -7.765625 3.050781 -7.902344 2.988281 -8.03125 L 4.273438 -7.277344 Z M 4.976562 -8.476562 "/></g></g></g><g fill="#000000" fill-opacity="1"><g transform="translate(132.458268, 90.845726)"><g><path d="M -6.902344 -2.820312 L -6.183594 -4.882812 L 0.847656 -2.4375 L 1.304688 -3.75 L -5.726562 -6.195312 L -5.019531 -8.238281 L -6.238281 -8.664062 L -6.949219 -6.621094 L -10.152344 -7.734375 L -10.609375 -6.421875 L -7.402344 -5.308594 L -8.121094 -3.242188 Z M -6.902344 -2.820312 "/></g></g></g><g fill="#000000" fill-opacity="1"><g transform="translate(135.930493, 79.714629)"><g><path d="M -0.769531 -2.902344 C -1.058594 -2.609375 -1.492188 -2.421875 -2.082031 -2.375 L -2.320312 -0.925781 C -0.492188 -0.925781 0.578125 -1.917969 0.910156 -3.914062 C 0.988281 -4.386719 1.019531 -4.824219 0.96875 -5.253906 C 0.917969 -5.683594 0.820312 -6.0625 0.660156 -6.429688 C 0.320312 -7.171875 -0.308594 -7.617188 -1.230469 -7.769531 C -2.171875 -7.925781 -2.910156 -7.605469 -3.488281 -6.773438 C -3.726562 -6.433594 -3.929688 -6.042969 -4.105469 -5.609375 C -4.273438 -5.195312 -4.457031 -4.800781 -4.636719 -4.449219 C -4.820312 -4.078125 -5.027344 -3.789062 -5.246094 -3.5625 C -5.464844 -3.339844 -5.761719 -3.246094 -6.152344 -3.3125 C -6.546875 -3.375 -6.8125 -3.582031 -6.9375 -3.925781 C -7.082031 -4.269531 -7.117188 -4.65625 -7.050781 -5.070312 C -6.980469 -5.5 -6.820312 -5.855469 -6.613281 -6.125 C -6.410156 -6.390625 -6.058594 -6.574219 -5.5625 -6.636719 L -5.320312 -8.105469 C -6.210938 -8.070312 -6.882812 -7.796875 -7.304688 -7.304688 C -7.75 -6.796875 -8.042969 -6.140625 -8.179688 -5.296875 C -8.316406 -4.472656 -8.199219 -3.710938 -7.871094 -3.03125 C -7.515625 -2.371094 -6.921875 -1.949219 -6.058594 -1.808594 C -5.648438 -1.738281 -5.257812 -1.792969 -4.910156 -1.957031 C -4.535156 -2.136719 -4.226562 -2.429688 -3.960938 -2.828125 C -3.71875 -3.191406 -3.511719 -3.578125 -3.324219 -3.992188 C -3.15625 -4.40625 -2.96875 -4.796875 -2.789062 -5.167969 C -2.347656 -6.003906 -1.84375 -6.382812 -1.292969 -6.292969 C -0.355469 -6.136719 -0.0078125 -5.433594 -0.214844 -4.179688 C -0.300781 -3.652344 -0.472656 -3.21875 -0.769531 -2.902344 Z M -0.769531 -2.902344 "/></g></g></g></svg>